<svg xmlns="http://www.w3.org/2000/svg" version="1.2" baseProfile="tiny-ps" viewBox="3 1 158 162"><title>noun_brilliant idea_1885297-svg</title><style>tspan { white-space:pre }.shp0 { fill: #000000 } </style><g><g><path fill-rule="evenodd" class="shp0" d="M82 163C38.4 163 3 127.4 3 84C3 50.5 24.1 20.6 55.5 9.4C55.6 9.4 55.6 9.4 55.6 9.4C64 4.1 74 1 84.6 1C98.8 1 111.7 6.5 121.4 15.5C145.8 29.6 161 55.8 161 84C161 127.4 125.7 163 82 163ZM126.9 21.2C134.4 30.6 138.9 42.4 138.9 55.3C138.9 69.3 133.7 82.5 124.1 92.6L124.1 138.9L136.1 138.9C150.3 124.9 159.1 105.4 159.1 84C159.1 59 146.9 35.7 126.9 21.2ZM84.6 3C55.8 3 32.3 26.4 32.3 55.2C32.3 55.3 32.3 55.5 32.2 55.6L17 86.8L31.3 86.8C31.9 86.8 32.3 87.3 32.3 87.8L32.3 108.6C32.3 115 37.5 120.3 44 120.3L66.3 120.3C66.9 120.3 67.3 120.8 67.3 121.3L67.3 138.8L122.2 138.8L122.2 92.2C122.2 91.9 122.3 91.7 122.5 91.5C131.8 81.7 137 68.9 137 55.3C137 26.4 113.5 3 84.6 3ZM27.9 138.8L65.3 138.8L65.3 122.3L43.9 122.3C36.3 122.3 30.2 116.1 30.2 108.6L30.2 88.7L15.3 88.7C15 88.7 14.7 88.5 14.5 88.2C14.4 88 14.4 87.6 14.5 87.3L30.3 55C30.4 38.7 37.8 24 49.3 14.2C22.5 26.8 4.9 53.9 4.9 84C4.9 105.4 13.7 124.8 27.9 138.8ZM82 161.1C102 161.1 120.3 153.4 134 140.8L30 140.8C43.7 153.4 62 161 82 161.1Z"/></g><g><path class="shp0" d="M78.7 147.7L55.1 147.7C54.5 147.7 54.1 147.2 54.1 146.7C54.1 146.1 54.6 145.7 55.1 145.7L78.7 145.7C79.3 145.7 79.7 146.2 79.7 146.7C79.7 147.2 79.3 147.7 78.7 147.7Z"/></g><g><path class="shp0" d="M86.4 147.7L82.5 147.7C81.9 147.7 81.5 147.2 81.5 146.7C81.5 146.1 82 145.7 82.5 145.7L86.4 145.7C87 145.7 87.4 146.2 87.4 146.7C87.4 147.2 87 147.7 86.4 147.7Z"/></g><g><path class="shp0" d="M88.8 146.7C88.8 146.1 89.3 145.7 89.8 145.7L92.4 145.7C93 145.7 93.4 146.2 93.4 146.7C93.4 147.3 92.9 147.7 92.4 147.7L89.8 147.7C89.2 147.7 88.8 147.2 88.8 146.7Z"/></g><g><path class="shp0" d="M109.8 151.5C109.8 152.1 109.3 152.5 108.8 152.5L85.2 152.5C84.6 152.5 84.2 152.1 84.2 151.5C84.2 150.9 84.7 150.5 85.2 150.5L108.9 150.5C109.4 150.5 109.8 150.9 109.8 151.5Z"/></g><g><path class="shp0" d="M82.4 151.5C82.4 152.1 81.9 152.5 81.4 152.5L77.5 152.5C76.9 152.5 76.5 152.1 76.5 151.5C76.5 150.9 77 150.5 77.5 150.5L81.4 150.5C82 150.5 82.4 150.9 82.4 151.5Z"/></g><g><path class="shp0" d="M75.2 151.5C75.2 152.1 74.7 152.5 74.2 152.5L71.6 152.5C71 152.5 70.6 152.1 70.6 151.5C70.6 150.9 71.1 150.5 71.6 150.5L74.2 150.5C74.8 150.5 75.2 150.9 75.2 151.5Z"/></g><g><path fill-rule="evenodd" class="shp0" d="M52.6 50.3C53.4 34 66.7 20.9 83.2 20.6C91.7 20.4 99.9 23.5 106 29.5C112.1 35.4 115.5 43.4 115.5 52C115.5 60.2 112.3 67.9 106.6 73.8C100.8 79.8 97.2 87.3 96.5 95.2C98.1 95.4 99.4 96.8 99.4 98.5L99.4 109.6C99.4 111.5 97.9 113 96 113L91.5 113L91.5 117.7C91.5 118.3 91 118.7 90.5 118.7L77.6 118.7C77 118.7 76.6 118.2 76.6 117.7L76.6 113.1L72 113.1C70.1 113.1 68.6 111.6 68.6 109.7L68.6 98.5C68.6 96.7 69.9 95.3 71.6 95.1C70.9 87.3 67.4 79.8 61.6 73.9C55.4 67.6 52.2 59.2 52.6 50.3ZM97.4 102.2L70.5 102.2L70.5 106L97.4 106L97.4 102.2ZM89.4 113L78.4 113L78.4 116.7L89.4 116.7L89.4 113ZM97.4 109.7L97.4 108L70.5 108L70.5 109.7C70.5 110.5 71.1 111.1 71.9 111.1L96 111.1C96.8 111.1 97.4 110.4 97.4 109.7ZM95.9 97.1L71.9 97.1C71.1 97.1 70.5 97.7 70.5 98.5L70.5 100.2L97.4 100.2L97.4 98.5C97.4 97.7 96.8 97 95.9 97.1ZM62.9 72.4C69.1 78.7 72.8 86.7 73.4 95L94.4 95C95.1 86.7 98.9 78.6 105 72.3C110.4 66.8 113.3 59.5 113.3 51.8C113.3 43.8 110.2 36.3 104.4 30.7C98.6 25.1 91 22.2 83 22.4C67.8 22.8 55.2 35.1 54.5 50.4C54.1 58.7 57.1 66.6 62.9 72.4Z"/></g><g><path fill-rule="evenodd" class="shp0" d="M60.9 51.8C60.9 39.1 71.3 28.7 84 28.7C96.7 28.7 107.1 39.1 107.1 51.8C107.1 64.5 96.7 74.9 84 74.9C71.2 74.9 60.9 64.6 60.9 51.8ZM62.9 51.9C62.9 63.5 72.4 73 84 73C95.6 73 105.1 63.5 105.1 51.8C105.1 40.2 95.6 30.7 84 30.7C72.3 30.7 62.8 40.2 62.9 51.9Z"/></g><g><path class="shp0" d="M83 16.5L83 12C83 11.4 83.5 11 84 11C84.6 11 85 11.5 85 12L85 16.4C85 17 84.5 17.4 84 17.4C83.4 17.4 83 17 83 16.5Z"/></g><g><path class="shp0" d="M100.8 20.7L103 16.8C103.2 16.3 103.8 16.1 104.3 16.4C104.8 16.6 105 17.2 104.7 17.7L102.5 21.6C102.3 22.1 101.7 22.3 101.2 22C100.7 21.8 100.5 21.2 100.8 20.7Z"/></g><g><path class="shp0" d="M113.8 34.6C113.6 34.2 113.7 33.6 114.2 33.3L118.1 31.1C118.5 30.9 119.1 31 119.4 31.5C119.6 31.9 119.5 32.5 119 32.8L115.1 35C114.6 35.3 114 35.1 113.8 34.6Z"/></g><g><path class="shp0" d="M119.4 50.8L123.9 50.8C124.5 50.8 124.9 51.2 124.9 51.8C124.9 52.4 124.4 52.8 123.9 52.8L119.4 52.8C118.8 52.8 118.4 52.3 118.4 51.8C118.4 51.3 118.8 50.9 119.4 50.8Z"/></g><g><path class="shp0" d="M119.4 72.2C119.2 72.7 118.6 72.9 118.1 72.6L114.2 70.4C113.7 70.2 113.5 69.6 113.8 69.1C114 68.6 114.6 68.4 115.1 68.7L119 70.9C119.4 71.2 119.6 71.8 119.4 72.2Z"/></g><g><path class="shp0" d="M63.2 17.8C63 17.4 63.1 16.8 63.6 16.5C64 16.3 64.6 16.4 64.9 16.9L67.1 20.8C67.3 21.2 67.2 21.8 66.7 22.1C66.3 22.3 65.7 22.2 65.4 21.7L63.2 17.8Z"/></g><g><path class="shp0" d="M48.6 31.5C48.8 31 49.4 30.8 49.9 31.1L53.8 33.3C54.3 33.5 54.5 34.1 54.2 34.6C54 35.1 53.4 35.3 52.9 35L49 32.8C48.5 32.5 48.3 31.9 48.6 31.5Z"/></g><g><path class="shp0" d="M48.6 52.8L44.1 52.8C43.5 52.8 43.1 52.4 43.1 51.8C43.1 51.2 43.6 50.8 44.1 50.8L48.6 50.8C49.2 50.8 49.6 51.3 49.6 51.8C49.6 52.4 49.1 52.8 48.6 52.8Z"/></g><g><path class="shp0" d="M54.2 69.1C54.4 69.5 54.3 70.1 53.8 70.4L49.9 72.6C49.7 72.7 49.6 72.7 49.4 72.7C49.1 72.7 48.8 72.5 48.6 72.2C48.4 71.8 48.5 71.2 49 70.9L52.8 68.7C53.3 68.4 53.9 68.6 54.2 69.1Z"/></g><g><path fill-rule="evenodd" class="shp0" d="M66.1 47.7C65.8 47.4 65.8 46.9 66 46.6L71.7 37.9C71.8 37.9 71.8 37.8 71.8 37.8C71.9 37.8 71.9 37.7 71.9 37.7L72 37.6C72 37.5 72.1 37.5 72.1 37.5C72.1 37.4 72.2 37.4 72.2 37.4C72.2 37.4 95.4 37.4 95.5 37.4C95.8 37.4 96.1 37.5 96.3 37.8L102 46.6C102.2 46.9 102.1 47.4 101.9 47.7L84.7 69.4C84.3 69.9 83.6 69.9 83.2 69.4L66.1 47.7ZM84.8 62.3L88.5 48.1L79.6 48.1L83.3 62.3L84 65L84.8 62.3ZM87.8 46.2L83.9 40.1L80 46.2L87.8 46.2ZM93.7 39.3L85.8 39.3L89.7 45.4L93.7 39.3ZM82.2 39.3L74.3 39.3L78.2 45.4L82.2 39.3ZM77.5 48.2L68.8 48.2L81.8 64.6L77.5 48.2ZM99.1 48.2L90.4 48.2L86.1 64.6L99.1 48.2ZM99.3 46.2L95.4 40.1L91.5 46.2L99.3 46.2ZM68.5 46.2L76.4 46.2L72.5 40.1L68.5 46.2Z"/></g></g></svg>