<?xml version="1.0" standalone="no"?>
<!DOCTYPE svg PUBLIC "-//W3C//DTD SVG 20010904//EN"
 "http://www.w3.org/TR/2001/REC-SVG-20010904/DTD/svg10.dtd">
<svg version="1.0" xmlns="http://www.w3.org/2000/svg"
 width="116.000000pt" height="94.000000pt" viewBox="0 0 116.000000 94.000000"
 preserveAspectRatio="xMidYMid meet">

<g transform="translate(0.000000,94.000000) scale(0.100000,-0.100000)"
fill="#000000" stroke="none">
<path d="M0 470 l0 -470 580 0 580 0 0 176 c0 100 -5 195 -12 222 -9 35 -9 47
0 50 9 3 12 71 12 248 l0 244 -580 0 -580 0 0 -470z m1140 275 l0 -55 -40 0
c-23 0 -54 -7 -70 -15 -50 -26 -60 -59 -60 -203 0 -127 0 -129 -31 -175 -17
-26 -50 -59 -73 -72 -74 -43 -253 -32 -294 18 -12 14 -18 13 -60 -14 -43 -27
-53 -29 -141 -29 -116 1 -150 15 -202 84 -46 60 -49 76 -49 242 l0 134 65 0
65 0 0 -144 c0 -164 7 -182 78 -205 52 -17 87 -8 129 34 l33 33 0 141 0 141
60 0 60 0 0 -136 c0 -150 9 -178 70 -209 38 -20 63 -19 108 4 51 26 62 55 62
169 1 126 11 175 47 225 43 62 93 87 176 87 l67 0 0 -55z"/>
</g>
</svg>
