<?xml version="1.0" standalone="no"?>
<!DOCTYPE svg PUBLIC "-//W3C//DTD SVG 20010904//EN"
 "http://www.w3.org/TR/2001/REC-SVG-20010904/DTD/svg10.dtd">
<svg version="1.0" xmlns="http://www.w3.org/2000/svg"
 width="300.000000pt" height="200.000000pt" viewBox="0 0 300.000000 200.000000"
 preserveAspectRatio="xMidYMid meet">
<metadata>
Created by potrace 1.10, written by Peter Selinger 2001-2011
</metadata>
<g transform="translate(0.000000,200.000000) scale(0.100000,-0.100000)"
fill="#000000" stroke="none">
<path d="M1660 1561 c0 -5 -14 -14 -30 -21 -35 -15 -50 -37 -50 -76 0 -15 -8
-33 -17 -40 -16 -13 -17 -15 -2 -26 9 -7 14 -19 12 -25 -9 -27 5 -37 16 -13
10 23 11 22 6 -10 -7 -39 -7 -41 -1 -153 6 -108 10 -116 41 -87 24 22 25 22
25 4 0 -11 -4 -24 -9 -30 -12 -12 1 -79 16 -79 6 0 24 17 41 37 l29 37 6 -66
c10 -104 -11 -121 -117 -89 -27 8 -55 12 -64 8 -11 -4 -8 2 7 19 29 30 74 99
68 105 -2 2 -21 -21 -42 -52 -44 -68 -50 -64 -66 50 -7 53 -7 87 0 109 6 17
13 50 17 72 7 48 19 32 26 -37 5 -48 0 -55 -34 -49 -5 0 -8 -4 -8 -10 0 -6 7
-8 16 -5 9 3 21 6 28 6 12 0 13 28 7 123 0 9 -8 17 -16 17 -18 0 -35 -31 -35
-64 0 -14 -4 -26 -10 -26 -5 0 -10 15 -10 33 0 19 -3 36 -6 39 -12 13 -138
-38 -129 -52 3 -5 0 -7 -8 -4 -8 3 -18 1 -22 -5 -11 -19 31 -12 58 9 14 11 27
20 29 20 2 0 2 -18 0 -39 l-4 -39 -35 10 c-63 17 -120 46 -158 80 -21 18 -36
26 -34 18 8 -24 94 -77 164 -100 l65 -22 0 -61 c0 -73 10 -137 20 -137 8 0 3
200 -5 208 -8 8 -6 66 3 77 4 6 16 15 28 22 21 11 21 9 32 -112 7 -68 16 -135
22 -150 10 -26 9 -26 -22 -20 l-33 6 23 -20 c13 -11 63 -29 120 -41 112 -25
137 -39 145 -75 4 -26 3 -27 -27 -20 -17 3 -55 9 -83 12 l-53 6 0 -42 c0 -35
-3 -41 -20 -41 -29 0 -34 23 -15 59 15 30 15 31 -8 42 -13 6 -37 32 -53 57
-23 36 -30 41 -33 26 -8 -47 -40 -56 -81 -24 -26 21 -45 26 -36 11 4 -5 1 -11
-5 -13 -9 -3 -9 -9 0 -26 10 -19 9 -22 -5 -22 -15 0 -14 -4 7 -26 21 -22 21
-24 4 -18 -16 6 -18 4 -8 -6 7 -8 40 -16 73 -18 33 -2 63 -8 66 -13 3 -5 13
-9 23 -9 10 0 24 -7 31 -16 8 -9 25 -14 44 -12 29 3 31 5 29 41 -3 44 -3 44
111 22 44 -8 81 -13 84 -10 3 3 -2 5 -11 5 -24 0 -31 43 -13 79 23 43 40 39
63 -16 30 -70 36 -99 39 -193 3 -101 3 -103 14 -66 5 16 7 48 3 71 -3 26 -1
45 6 49 7 5 9 -2 5 -23 -6 -28 -4 -30 32 -40 22 -6 56 -13 77 -16 20 -3 37 -9
37 -12 0 -23 -37 -117 -52 -133 -27 -29 -46 -25 -85 16 -37 40 -55 42 -25 3
13 -16 21 -49 26 -99 3 -41 9 -99 12 -127 l6 -53 -73 0 -74 0 0 83 c0 96 -15
147 -24 82 -3 -22 -4 -62 -1 -90 l5 -50 6 60 6 60 1 -62 c1 -39 -2 -63 -9 -63
-5 0 -8 -4 -5 -8 5 -8 -120 1 -173 13 -35 7 -46 31 -31 69 13 35 13 96 0 96
-6 0 -8 -10 -4 -24 3 -14 2 -35 -2 -48 -7 -22 -7 -22 -15 -3 -11 28 -11 37 1
30 6 -3 10 1 10 10 0 9 -4 14 -8 11 -5 -3 -25 6 -45 19 -54 37 -56 30 -8 -19
37 -38 45 -52 49 -94 l4 -49 -47 -6 c-132 -19 -135 -16 -159 184 l-5 45 87 -3
c48 -2 94 0 101 6 8 5 18 31 21 58 l6 48 15 -60 c11 -45 21 -63 39 -72 32 -16
172 -17 188 -1 16 16 15 79 -1 149 l-14 55 39 -10 c25 -7 41 -7 48 0 6 6 -4
10 -30 11 -21 1 -76 18 -121 38 -67 29 -87 34 -108 26 -14 -5 -50 -11 -78 -14
l-53 -4 -1 36 c-1 20 -6 -16 -10 -79 -11 -150 -13 -159 -41 -153 -42 10 -203
91 -239 122 -19 16 -50 56 -67 89 -33 62 -39 107 -22 158 20 59 92 381 96 436
3 34 1 59 -5 63 -11 6 -16 -25 -13 -75 2 -30 -38 -221 -78 -376 -34 -127 -32
-140 25 -233 35 -59 102 -114 175 -145 17 -7 28 -15 25 -18 -5 -5 0 -48 26
-213 5 -33 15 -64 22 -70 10 -7 -216 -9 -681 -7 -383 1 -694 1 -691 -1 4 -4
1674 -23 1874 -21 188 1 397 12 407 22 10 10 -40 8 -96 -3 -32 -7 -66 13 -66
38 0 35 -30 130 -46 147 -12 12 -14 12 -14 -2 0 -10 5 -29 12 -43 15 -34 6
-40 -31 -21 -55 29 -57 12 -4 -39 l36 -35 -28 0 c-23 0 -26 -2 -15 -15 7 -8
20 -15 29 -15 14 0 14 2 1 10 -12 8 -10 10 10 10 23 0 23 1 -15 40 -21 22 -35
40 -29 40 5 0 14 -4 20 -9 5 -5 18 -11 29 -13 23 -3 33 -22 34 -58 1 -19 -4
-25 -21 -27 -13 -1 -48 -5 -79 -9 l-56 -6 -7 88 c-4 49 -9 106 -12 126 l-6 37
32 -12 c29 -11 34 -10 55 16 14 15 30 45 36 67 l12 40 17 -38 c27 -59 66 -85
119 -79 l43 5 -6 -40 c-4 -21 -9 -66 -13 -99 -6 -58 -5 -59 19 -59 13 0 29 5
36 12 9 9 12 7 12 -11 0 -53 29 -70 88 -55 20 6 22 11 16 33 -4 14 -8 52 -9
83 -1 61 -10 82 -25 58 -14 -22 -12 -40 9 -103 l19 -56 -29 -6 c-38 -9 -45 -3
-57 47 -8 33 -7 59 3 108 8 36 15 79 15 95 l1 30 14 -33 c8 -17 17 -32 20 -32
3 0 12 15 20 32 l14 33 3 -55 c1 -30 2 -68 1 -85 -2 -46 18 -128 35 -147 11
-14 31 -18 81 -18 80 0 190 17 208 32 15 12 15 86 0 105 -5 7 -7 24 -5 38 3
14 1 25 -5 25 -6 0 -7 -17 -4 -44 7 -52 10 -51 -108 -67 -115 -15 -153 -7
-170 34 -17 42 -37 210 -30 250 3 18 2 50 -3 72 -9 36 -10 32 -11 -45 -1 -47
-8 -98 -15 -115 l-13 -30 -12 36 c-9 27 -9 53 -1 100 13 82 13 106 0 93 -5 -5
-12 -39 -15 -74 -10 -118 -38 -271 -47 -258 -5 8 -7 0 -6 -21 3 -32 -22 -65
-37 -49 -12 12 18 193 35 213 28 32 31 58 13 95 -12 23 -17 52 -15 86 l3 50
67 -17 c37 -10 85 -18 107 -18 37 -1 45 5 115 77 122 126 170 245 124 310 -22
32 -12 37 15 8 35 -38 46 -146 30 -309 -19 -192 -15 -351 11 -472 6 -27 8 -60
5 -73 l-5 -22 132 2 133 2 -121 3 -120 4 -19 154 c-21 180 -22 227 -6 350 24
193 10 334 -36 373 -31 25 -128 72 -150 72 -26 0 -26 32 1 108 21 59 24 77 14
84 -7 4 2 5 21 1 25 -4 32 -3 27 5 -4 7 -16 12 -26 12 -15 0 -23 13 -36 55
-18 65 -44 86 -113 93 -63 6 -133 -24 -161 -70 -26 -42 -22 -62 13 -66 23 -3
30 2 42 32 8 19 25 42 37 50 31 22 111 21 130 -1 14 -16 48 -77 48 -85 0 -2
-66 -3 -148 -4 -149 0 -202 -6 -202 -24 0 -6 14 -10 30 -10 29 0 30 -2 30 -42
0 -98 39 -168 93 -168 28 0 29 -1 23 -37 -4 -21 -16 -81 -28 -133 l-22 -95 -7
45 c-14 83 -11 106 14 118 l22 11 -22 7 c-30 9 -29 14 9 46 18 15 28 28 22 28
-6 0 -29 -17 -51 -37 -49 -46 -102 -185 -80 -211 22 -27 -35 -3 -67 28 l-29
29 30 25 c30 25 89 164 80 189 -2 7 -24 19 -48 27 l-44 16 0 69 c0 39 -4 80
-8 91 -5 15 -3 23 8 28 17 6 21 36 4 36 -5 0 -7 -5 -4 -10 7 -12 -23 -26 -33
-16 -4 4 4 15 16 25 l24 17 -40 36 c-91 82 -194 46 -209 -74 -3 -24 -9 -48
-14 -54 -15 -19 103 -8 159 15 52 21 87 28 67 13 -14 -10 -18 -42 -5 -42 5 0
10 6 11 13 0 6 4 3 8 -7 23 -60 -37 -156 -98 -156 -35 0 -57 23 -81 86 l-18
49 42 0 c23 0 61 9 84 19 58 26 48 30 -15 6 -32 -12 -67 -18 -92 -15 -23 2
-41 3 -41 1 0 -1 9 -21 20 -44 11 -22 20 -45 20 -50 0 -5 11 -21 25 -36 35
-37 84 -36 124 5 17 17 31 25 31 18 0 -17 -99 -111 -109 -104 -5 3 -12 -1 -15
-7 -3 -7 -4 -4 -1 8 3 12 -1 27 -10 34 -13 10 -15 9 -15 -7 0 -16 -78 -93 -95
-93 -3 0 -11 14 -16 30 -6 17 -17 30 -24 30 -7 0 -16 7 -19 16 -3 9 -12 14
-20 11 -7 -3 -26 3 -42 14 -16 10 -25 19 -21 19 4 0 20 -8 34 -17 15 -10 24
-12 19 -5 -4 6 -21 19 -37 27 -28 15 -29 17 -14 44 8 16 19 51 25 77 6 27 17
54 25 60 10 8 -7 9 -64 6 -77 -4 -181 12 -181 28 0 4 28 1 63 -6 67 -14 136
-18 161 -8 37 14 10 126 -37 157 -27 18 -87 23 -87 8z m56 -7 c16 -4 24 -18
32 -57 11 -51 11 -52 9 -9 -3 53 9 54 23 1 24 -88 5 -100 -121 -79 l-69 12 0
34 c0 24 8 43 25 59 33 34 42 32 54 -17 l10 -43 -3 53 c-3 54 0 57 40 46z
m802 -49 c12 -15 22 -31 22 -38 -1 -7 -7 0 -15 15 -20 36 -72 52 -123 39 -44
-12 -67 -34 -77 -73 -5 -21 -13 -28 -31 -28 -13 0 -24 2 -24 5 0 13 29 61 46
77 50 44 163 46 202 3z m-460 -45 l19 -58 -24 -11 c-13 -6 -42 -14 -65 -17
l-40 -7 15 24 c13 21 13 29 1 59 l-14 35 5 -37 c6 -36 -10 -78 -29 -78 -5 0
-6 21 -2 47 6 48 37 93 63 93 8 0 12 4 9 9 -3 4 5 6 19 3 19 -3 28 -16 43 -62z
m52 30 l35 -30 -25 -20 c-33 -26 -38 -25 -48 13 -6 17 -13 40 -17 50 -11 27
16 21 55 -13z m335 -100 c12 -4 -29 -7 -100 -7 l-120 1 90 6 c50 3 95 7 100 7
6 1 19 -2 30 -7z m-676 -67 c-10 -54 -28 -93 -50 -106 -26 -16 -68 1 -89 36
-11 17 -20 27 -20 20 0 -7 13 -28 30 -46 l29 -34 -29 -28 -30 -29 -1 62 c-2
78 -2 126 0 155 1 21 4 22 85 19 l83 -3 -8 -46z m791 47 c8 -5 10 -10 4 -10
-10 0 -23 -37 -29 -80 -1 -9 -7 -26 -14 -38 -8 -15 -9 -28 -2 -39 12 -22 0
-44 -47 -88 -37 -34 -37 -34 -53 -13 -12 15 -18 17 -24 9 -4 -7 -4 -15 -1 -18
3 -4 6 0 7 8 0 8 4 4 9 -8 12 -30 22 -29 61 4 l32 28 -28 -43 c-28 -42 -39
-50 -50 -33 -3 6 -14 8 -24 6 -18 -3 -19 2 -15 53 4 52 9 60 44 90 22 19 40
38 40 43 0 19 -21 8 -57 -31 -42 -44 -72 -51 -102 -21 -19 19 -41 99 -41 151
l0 30 70 0 c65 0 73 -2 96 -27 22 -26 25 -27 38 -10 7 9 21 17 30 17 15 0 15
-3 1 -35 -13 -32 -13 -37 1 -42 8 -3 18 -3 21 1 4 3 -1 6 -10 6 -15 0 -15 3 0
36 15 30 15 36 3 44 -9 6 -24 3 -42 -8 -25 -15 -30 -15 -38 -2 -7 11 -4 17 13
22 34 10 90 9 107 -2z m-396 -257 c-9 -33 -21 -37 -49 -15 -19 15 -22 21 -11
25 18 7 51 56 43 64 -4 3 -11 -6 -18 -20 -13 -28 -74 -66 -86 -53 -4 4 1 12
12 18 11 6 36 28 55 48 l35 37 12 -40 c7 -22 10 -51 7 -64z m-444 80 c-1 -15
-50 -68 -50 -54 0 10 -11 5 -30 -14 -20 -19 -30 -24 -30 -14 0 16 79 88 98 89
6 0 12 -3 12 -7z m25 -2 c-6 -11 62 -61 84 -61 12 0 11 -3 -2 -18 -34 -38 -57
-106 -57 -174 0 -66 0 -66 -23 -55 -23 11 -23 11 -4 30 17 17 18 28 12 96 -4
42 -9 78 -12 81 -2 3 -23 -15 -45 -40 l-40 -45 6 49 c4 34 17 63 42 97 20 27
38 49 40 49 3 0 3 -4 -1 -9z m494 -17 c2 -2 -9 -37 -24 -77 -17 -49 -39 -87
-61 -108 l-34 -33 0 61 c0 55 2 61 19 56 28 -7 45 30 37 83 l-5 43 32 -11 c17
-6 34 -12 36 -14z m300 -16 c-11 -21 -11 -22 4 -9 15 12 17 11 17 -7 0 -12 -9
-27 -21 -36 -15 -10 -19 -20 -14 -35 4 -15 -8 -39 -46 -90 -29 -39 -55 -68
-58 -66 -2 3 18 49 44 103 27 53 48 101 47 105 -1 5 3 5 9 1 7 -4 10 -2 7 7
-5 14 8 49 18 49 2 0 -1 -10 -7 -22z m69 -3 c1 -1 -13 -25 -32 -53 -27 -41
-35 -47 -39 -32 -3 13 3 24 20 35 15 10 22 22 19 31 -20 49 -21 47 5 34 13 -7
25 -14 27 -15z m60 -56 c49 -71 2 -186 -129 -321 -65 -66 -75 -68 -194 -40
l-69 17 3 50 c1 28 4 52 6 54 2 2 18 -2 36 -8 18 -6 52 -11 76 -11 37 0 45 -4
55 -25 6 -14 15 -25 20 -25 11 0 4 38 -10 52 -8 8 -1 31 29 90 22 43 37 84 33
91 -4 7 -4 9 1 5 5 -5 19 9 33 30 36 53 64 83 76 79 6 -2 22 -19 34 -38z
m-668 21 c0 -9 -51 -40 -67 -40 -10 0 49 49 60 50 4 0 7 -4 7 -10z m-100 -74
c0 -2 -16 -7 -36 -10 -19 -4 -37 -13 -40 -21 -3 -7 11 -48 30 -91 20 -42 36
-91 35 -108 0 -27 -3 -25 -20 23 -10 30 -26 63 -36 73 -15 17 -17 17 -35 2
-17 -16 -18 -15 -18 28 0 54 24 128 51 157 l20 22 25 -36 c13 -20 24 -37 24
-39z m199 50 c6 -4 11 -31 11 -59 l0 -52 -19 41 c-10 23 -23 44 -27 46 -5 3
-36 -1 -69 -8 -75 -16 -85 -16 -85 -4 0 6 7 10 15 10 9 0 29 7 45 15 22 11 30
12 33 2 3 -7 6 -5 6 5 1 13 9 16 40 13 21 -1 44 -6 50 -9z m219 -25 c11 -7 11
-9 -2 -14 -11 -4 -16 -19 -16 -46 0 -56 20 -142 31 -135 5 3 9 0 9 -5 0 -12
-11 -14 -33 -5 -9 3 -12 14 -10 28 3 13 0 27 -6 30 -7 4 -11 -1 -11 -13 0 -11
-9 -22 -20 -26 -11 -3 -23 -18 -27 -33 -6 -24 -7 -25 -14 -7 -11 29 -11 47 1
40 5 -3 18 -2 27 4 17 9 17 10 1 16 -15 6 -14 12 7 73 39 112 37 110 63 93z
m-229 -71 c16 -33 31 -57 35 -55 3 3 2 0 -3 -6 -7 -8 -22 -7 -57 5 -61 21 -78
21 -70 0 5 -13 2 -15 -14 -11 -14 3 -20 1 -17 -6 5 -13 11 -13 41 -1 13 5 17
4 13 -3 -4 -6 3 -13 15 -16 34 -9 32 -2 -4 22 -39 25 -26 27 27 5 21 -8 46
-13 56 -11 13 4 20 -5 28 -39 6 -23 11 -45 11 -48 0 -8 -89 -5 -125 4 -28 7
-29 8 -5 9 25 2 25 3 4 13 -15 7 -28 7 -40 0 -16 -9 -15 -11 7 -22 13 -7 53
-15 90 -18 55 -4 68 -8 72 -23 8 -31 -21 -44 -108 -47 l-82 -4 -32 52 c-30 49
-32 55 -29 143 l3 92 55 11 c98 21 98 21 129 -46z m305 31 c5 -7 -4 -77 -20
-160 l-5 -24 -16 23 c-14 19 -14 27 -2 64 7 22 14 48 15 56 0 8 2 23 3 33 1
18 16 23 25 8z m37 -54 c-17 -41 -21 -61 -14 -68 8 -8 23 5 53 45 23 31 44 56
45 56 2 0 -16 -36 -38 -80 -36 -71 -44 -80 -69 -80 -15 0 -28 5 -28 11 0 5 4
8 9 5 5 -3 14 1 21 10 10 11 10 18 2 26 -9 9 -12 7 -12 -7 0 -10 -3 -16 -6
-12 -3 3 0 39 6 80 11 67 15 75 34 73 l22 -1 -25 -58z m-542 -24 l0 -78 -21
45 c-40 89 -40 90 -15 100 12 5 25 9 30 9 4 1 7 -34 6 -76z m279 -69 c-14 -29
-14 -29 -23 21 -7 39 -7 40 13 21 17 -15 19 -22 10 -42z m-627 -38 c20 -13 21
-19 11 -41 -10 -22 -15 -23 -37 -15 -15 6 -52 10 -83 11 -31 0 -51 3 -44 6 10
4 5 11 -15 25 -25 18 -26 19 -4 13 15 -5 21 -3 17 3 -3 6 -1 12 5 14 7 2 5 9
-5 17 -14 12 -16 11 -10 -5 5 -14 4 -16 -5 -8 -6 6 -9 18 -5 27 5 15 8 15 27
2 30 -21 65 -19 79 4 11 19 13 18 29 -8 10 -16 27 -36 40 -45z m665 -29 c2
-46 5 -52 28 -60 21 -7 26 -15 26 -42 0 -61 1 -60 -133 -58 -67 1 -140 5 -162
10 -36 8 -40 12 -37 38 2 15 -2 31 -8 35 -6 4 -13 24 -17 46 l-6 39 35 -45 35
-45 72 3 c40 2 84 7 97 12 29 11 45 48 33 72 -6 10 -5 27 3 43 17 37 32 16 34
-48z m64 14 c0 -54 -8 -70 -31 -64 -23 6 -23 7 -3 60 21 54 34 55 34 4z m-566
-132 c49 -22 42 -23 -104 -19 -96 2 -164 19 -85 20 22 1 56 7 75 14 38 15 53
13 114 -15z m-116 -31 l67 -1 -82 -25 c-84 -25 -101 -38 -60 -44 17 -2 23 -10
25 -39 4 -50 -17 -69 -76 -69 -80 0 -120 10 -125 32 -4 15 -2 18 11 13 53 -22
104 -37 109 -32 9 10 22 88 23 135 0 39 2 43 20 37 11 -4 51 -7 88 -7z m179
-4 c-3 -4 -1 -16 4 -27 17 -30 -4 -37 -113 -37 -76 0 -98 3 -98 14 0 14 97 43
165 49 22 2 42 4 44 5 2 1 1 -1 -2 -4z m472 -23 c10 -7 12 -24 7 -75 -7 -64
-8 -65 -41 -72 -61 -11 -116 39 -127 116 -3 22 1 26 37 31 62 10 109 10 124 0z
m-689 -25 c0 -11 -19 -15 -25 -6 -3 5 1 10 9 10 9 0 16 -2 16 -4z m730 -40 c0
-18 -7 -41 -16 -52 -14 -17 -15 -17 -10 -1 3 10 6 37 6 58 0 24 4 38 10 34 6
-3 10 -21 10 -39z m-486 -13 c13 -83 11 -90 -40 -97 -103 -14 -152 -1 -164 44
-4 14 -10 37 -13 52 l-7 27 102 4 c57 1 106 4 109 5 4 1 9 -15 13 -35z m577
-200 c-8 -15 -10 -15 -11 -2 0 17 10 32 18 25 2 -3 -1 -13 -7 -23z m71 -64
c26 -14 188 -6 233 11 35 13 50 1 41 -33 -5 -22 -13 -25 -94 -36 -103 -13
-162 -14 -179 -3 -13 8 -43 96 -42 122 0 8 5 0 10 -17 5 -18 19 -38 31 -44z
m-807 -52 c11 -3 -11 -5 -50 -4 -38 0 -60 2 -47 4 12 2 22 8 22 13 0 5 12 5
28 0 15 -5 36 -11 47 -13z"/>
<path d="M1967 903 c-23 -6 -17 -27 9 -31 16 -3 16 -1 4 7 -20 14 1 14 36 1
38 -15 42 -5 5 14 -16 9 -31 15 -33 15 -2 -1 -11 -3 -21 -6z"/>
<path d="M2376 1015 c-9 -26 -7 -32 5 -12 6 10 9 21 6 23 -2 3 -7 -2 -11 -11z"/>
</g>
</svg>
