<?xml version="1.0" standalone="no"?>
<!DOCTYPE svg PUBLIC "-//W3C//DTD SVG 20010904//EN"
 "http://www.w3.org/TR/2001/REC-SVG-20010904/DTD/svg10.dtd">
<svg version="1.0" xmlns="http://www.w3.org/2000/svg"
 width="300.000000pt" height="200.000000pt" viewBox="0 0 300.000000 200.000000"
 preserveAspectRatio="xMidYMid meet">
<metadata>
Created by potrace 1.10, written by Peter Selinger 2001-2011
</metadata>
<g transform="translate(0.000000,200.000000) scale(0.100000,-0.100000)"
fill="#000000" stroke="none">
<path d="M1686 1619 c-36 -28 -56 -70 -56 -118 0 -22 -5 -52 -12 -66 -10 -22
-8 -28 11 -48 12 -13 26 -39 31 -58 9 -30 8 -36 -12 -49 -47 -32 -79 -64 -95
-93 -21 -42 -47 -252 -33 -277 13 -23 25 -27 16 -5 -4 11 2 15 24 15 17 0 33
0 37 1 4 0 9 -4 11 -9 2 -8 -108 -42 -138 -42 -5 0 -10 12 -10 26 0 14 -5 35
-11 46 -6 12 -15 52 -20 90 -15 118 -26 143 -86 189 -29 23 -53 48 -53 56 0 7
-6 16 -14 19 -12 5 -12 10 1 34 17 36 36 147 29 176 -3 11 -24 44 -47 72 -35
45 -46 52 -75 52 -76 0 -131 -51 -134 -125 -4 -85 -1 -103 24 -130 l25 -27
-37 -39 c-21 -21 -57 -45 -82 -54 -60 -21 -87 -49 -120 -121 -16 -34 -44 -85
-64 -114 -20 -29 -36 -58 -36 -66 0 -8 -7 -14 -15 -14 -19 0 -19 23 1 99 27
107 1 145 -42 63 -21 -40 -22 -51 -17 -167 6 -123 6 -124 -21 -155 -34 -41
-34 -75 2 -97 15 -10 41 -32 57 -49 19 -20 52 -37 92 -49 65 -19 67 -22 78
-105 8 -53 9 -66 7 -102 l-2 -37 -53 6 c-28 3 -115 0 -193 -6 -139 -12 -209
-8 -319 18 -57 14 -175 20 -175 10 0 -5 24 -9 53 -9 28 -1 72 -5 97 -11 166
-36 200 -38 363 -22 117 11 166 12 189 4 23 -8 35 -8 45 1 15 12 15 32 -1 179
l-6 56 93 7 c50 4 133 13 182 21 50 8 117 15 150 17 l60 3 18 -55 17 -54 -30
-24 c-16 -13 -30 -28 -30 -33 0 -17 28 -9 42 13 14 20 15 19 37 -40 12 -34 29
-68 37 -77 19 -18 50 -20 61 -2 21 33 43 117 43 164 0 39 4 53 14 53 30 0 147
-42 152 -54 3 -8 -4 -41 -15 -75 -19 -58 -19 -91 -1 -91 13 0 20 29 14 63 -4
24 -3 28 5 17 6 -8 13 -35 17 -59 6 -41 8 -43 21 -25 7 10 28 26 46 34 20 9
33 24 35 38 5 30 -19 28 -49 -4 l-24 -27 28 18 c15 10 30 15 33 12 3 -3 -8
-13 -25 -21 -40 -21 -49 -4 -18 34 23 27 44 86 35 96 -3 2 -22 -20 -44 -50
-25 -35 -42 -50 -46 -43 -12 19 3 77 29 115 13 20 26 46 29 59 5 19 13 23 48
23 23 0 55 9 74 20 18 11 36 20 40 20 11 0 31 -132 36 -234 3 -43 9 -82 15
-85 6 -4 68 -1 138 6 118 12 292 19 586 23 64 1 120 6 123 11 8 13 -507 0
-668 -17 -198 -20 -178 -27 -178 60 0 41 -9 123 -21 182 -19 100 -19 110 -5
155 18 54 21 89 7 89 -9 0 -13 -15 -27 -93 -8 -45 -42 -75 -96 -83 -21 -4 -41
-11 -44 -16 -3 -5 13 -6 37 -2 28 5 40 4 36 -3 -11 -17 -87 -21 -87 -5 0 28
43 95 72 110 52 29 78 53 78 72 0 14 11 22 39 30 48 13 55 22 71 86 10 40 10
67 1 129 -17 119 -31 141 -118 182 -51 24 -73 40 -73 53 0 9 -7 23 -15 30 -11
9 -12 17 -4 32 6 11 8 29 6 40 -3 11 4 35 15 54 l20 34 -26 44 c-40 69 -79 96
-135 96 -34 0 -56 -6 -75 -21z m80 -4 c-11 -8 -23 -15 -28 -15 -15 0 -38 -59
-38 -98 0 -21 7 -47 16 -58 15 -18 15 -18 10 4 -4 12 -9 31 -12 42 -9 33 15
88 47 107 16 10 29 21 29 26 0 17 41 -15 75 -60 41 -54 43 -72 13 -108 -21
-24 -30 -26 -126 -31 -115 -5 -131 4 -93 52 12 15 21 35 21 46 0 45 53 108 90
108 12 -1 11 -4 -4 -15z m-516 -46 c22 -28 40 -57 40 -64 0 -8 -12 -23 -27
-35 l-28 -22 -5 49 c-6 52 -19 82 -46 104 -12 10 -11 5 5 -21 25 -42 30 -130
7 -130 -12 0 -12 7 -5 35 8 27 6 43 -7 70 -16 35 -34 54 -34 38 0 -5 7 -19 16
-31 21 -30 15 -96 -9 -100 -9 -2 -35 5 -57 15 -47 21 -52 48 -17 89 22 26 73
50 109 53 10 0 35 -21 58 -50z m445 25 c-9 -14 -24 -49 -32 -77 -9 -29 -18
-46 -20 -39 -9 25 8 82 33 112 31 37 42 39 19 4z m-418 -150 c-24 -21 -38 -24
-103 -24 -79 0 -114 11 -114 36 0 13 4 13 30 -1 17 -9 57 -17 89 -18 47 -2 65
2 88 19 37 29 46 19 10 -12z m4 -52 c-6 -2 -11 -13 -11 -25 0 -38 -37 -87 -65
-87 -46 0 -83 27 -96 70 -7 22 -18 40 -26 40 -7 0 -13 6 -13 14 0 12 7 13 32
5 46 -13 117 -11 153 5 26 11 31 11 34 -3 2 -8 -2 -17 -8 -19z m439 15 c36 2
76 5 90 8 21 4 22 3 8 -5 -23 -14 -138 -25 -172 -16 -14 3 -26 11 -26 17 0 7
6 8 18 3 9 -5 46 -8 82 -7z m160 -3 c0 -8 -4 -12 -10 -9 -5 3 -10 10 -10 16 0
5 5 9 10 9 6 0 10 -7 10 -16z m-21 -54 c1 -13 0 -13 -9 0 -5 8 -9 26 -9 40 l1
25 8 -25 c4 -14 8 -32 9 -40z m-28 6 c2 -25 0 -42 -5 -38 -5 3 -7 -2 -3 -10 6
-18 -17 -42 -49 -52 -46 -14 -84 21 -108 100 -5 18 -3 20 21 17 16 -2 51 3 78
10 28 8 53 15 56 16 4 0 9 -19 10 -43z m41 -102 c-18 -52 -21 -55 -31 -36 -9
18 -8 25 9 42 11 11 20 32 20 47 0 20 3 24 11 16 8 -8 6 -27 -9 -69z m-764 43
c2 -10 -3 -17 -12 -17 -8 0 -20 -8 -25 -17 -10 -17 -10 -17 -11 0 0 46 40 74
48 34z m742 -16 c-6 -12 -15 -21 -20 -21 -5 0 -1 13 8 30 19 32 30 24 12 -9z
m-628 -10 c10 5 18 7 18 4 0 -7 -30 -65 -33 -65 -2 0 -20 18 -41 39 l-39 40
39 -14 c26 -9 45 -10 56 -4z m58 -7 c12 -31 12 -34 1 -34 -5 0 -11 8 -15 18
-3 9 -9 23 -12 30 -3 6 -1 12 5 12 7 0 16 -12 21 -26z m408 -6 c-4 -25 28 -62
61 -73 15 -4 21 -18 26 -53 3 -26 7 -54 9 -62 2 -10 -5 -17 -18 -18 -17 -1
-18 1 -6 9 13 9 13 10 0 6 -18 -4 -21 -33 -3 -30 11 2 40 -74 31 -82 -9 -7
-119 -35 -141 -35 -35 0 -40 12 -22 54 19 44 19 77 1 101 -13 18 -15 12 -27
-57 -12 -73 -14 -78 -42 -84 -36 -8 -40 -3 -27 30 5 15 10 48 10 74 1 107 23
160 87 209 l31 24 -1 -32 c-1 -18 4 -34 11 -36 6 -3 12 3 12 12 0 9 -4 14 -8
11 -5 -3 -6 8 -4 25 2 16 9 29 14 29 5 0 8 -10 6 -22z m283 -15 c69 -33 76
-42 98 -128 22 -83 5 -222 -28 -233 -8 -3 -4 12 9 38 l21 42 -22 24 c-12 13
-33 24 -45 24 -15 0 -22 5 -18 13 8 22 -14 67 -33 67 -17 -1 -17 -1 0 -11 9
-5 17 -20 17 -33 0 -25 -36 -171 -46 -187 -3 -6 -22 -8 -43 -4 -42 7 -59 -5
-63 -45 -2 -19 3 -26 28 -33 l32 -9 -24 -36 c-13 -19 -33 -65 -44 -101 -11
-36 -27 -76 -35 -88 -15 -21 -18 -22 -43 -9 -39 20 -216 73 -286 85 -74 14
-148 14 -214 1 -93 -17 -216 -30 -304 -31 -73 -1 -96 3 -142 24 -65 30 -94 69
-64 89 10 6 6 14 -16 33 -28 23 -29 25 -15 51 10 21 13 59 11 158 -2 117 0
134 18 161 l20 30 0 -40 c0 -21 -7 -59 -16 -82 -19 -50 -8 -93 24 -93 11 0 27
-9 37 -20 26 -28 98 -69 153 -85 109 -34 362 -9 629 61 34 9 60 21 57 25 -3 5
1 6 9 3 25 -9 270 70 304 97 15 13 17 61 3 75 -7 7 -2 18 15 34 15 14 25 34
25 52 0 41 -17 34 -31 -12 l-12 -39 -19 24 c-11 14 -28 25 -39 25 -24 0 -24
-12 1 -35 24 -22 25 -41 5 -88 -15 -37 -61 -80 -76 -71 -5 3 -9 33 -9 67 0 34
-4 79 -9 100 -16 69 16 127 40 73 7 -14 16 -26 20 -26 5 0 16 23 26 50 10 28
20 49 23 47 3 -1 35 -17 71 -34z m-911 -13 c5 0 14 8 19 18 14 27 44 21 88
-19 38 -34 38 -35 20 -54 -11 -11 -23 -19 -28 -17 -5 1 -7 -8 -4 -20 3 -13 7
-84 8 -158 2 -74 7 -144 12 -154 8 -18 4 -19 -102 -14 -61 3 -116 9 -122 12
-16 10 -14 111 4 152 13 32 16 34 37 23 29 -15 138 -22 138 -9 0 6 -20 10 -44
10 -23 0 -58 5 -75 11 l-33 11 31 32 c17 18 31 42 31 54 0 27 -16 29 -25 3 -3
-11 -12 -25 -20 -31 -13 -11 -15 -5 -13 38 1 28 5 46 9 41 4 -7 9 -8 13 -1 3
5 -1 15 -8 21 -19 16 -26 3 -32 -63 -4 -51 -28 -126 -40 -126 -3 0 -14 5 -25
11 -29 15 -56 4 -39 -16 7 -8 21 -15 31 -15 21 0 24 -11 8 -27 -8 -8 -21 -7
-46 4 -19 8 -38 12 -41 9 -9 -9 18 -34 43 -40 16 -4 22 -11 19 -20 -11 -28
-35 -25 -70 7 -33 30 -35 34 -24 62 6 17 20 39 30 50 11 11 37 56 58 100 46
93 59 107 127 132 48 18 50 18 53 1 2 -10 7 -18 12 -18z m200 9 c0 -5 -4 -9
-10 -9 -5 0 -10 7 -10 16 0 8 5 12 10 9 6 -3 10 -10 10 -16z m505 4 l35 6 -16
-25 c-9 -13 -20 -24 -24 -24 -13 0 -60 41 -60 52 0 6 6 6 15 -2 9 -8 29 -10
50 -7z m-376 -91 c7 -14 16 -55 18 -91 3 -36 13 -87 24 -113 10 -26 19 -51 19
-56 0 -5 -22 -4 -50 2 -50 10 -51 11 -44 41 3 16 12 49 20 73 17 53 18 67 1
81 -22 17 -37 -8 -36 -58 l2 -46 6 42 c9 53 21 67 21 24 0 -57 -13 -69 -67
-63 -26 2 -56 9 -66 14 -15 8 -18 6 -15 -9 3 -15 14 -19 62 -21 l58 -3 -5 -48
c-7 -65 -1 -72 47 -56 23 8 46 10 54 6 14 -8 -27 -21 -88 -26 -14 -2 -53 -8
-88 -15 -34 -7 -66 -9 -70 -6 -9 10 -15 238 -7 292 3 23 15 52 25 65 11 12 20
26 20 31 0 5 14 7 30 3 22 -5 32 -3 36 9 5 13 12 11 43 -15 20 -18 42 -43 50
-57z m513 -19 c10 -9 18 -23 18 -32 -1 -12 -3 -11 -12 4 -6 11 -18 26 -26 33
-9 6 -12 12 -7 12 5 0 17 -7 27 -17z m-872 -38 c0 -3 -18 -24 -40 -46 -22 -23
-37 -34 -34 -24 4 10 21 31 38 46 33 30 36 32 36 24z m901 -50 c6 17 8 17 8 3
1 -19 -37 -63 -46 -55 -3 3 1 23 8 44 12 35 14 36 17 13 4 -23 5 -24 13 -5z
m-321 -72 c-10 -16 -11 -15 -6 7 3 14 6 32 7 40 1 8 4 5 6 -7 2 -12 -1 -30 -7
-40z m-715 9 c-3 -3 -11 0 -18 7 -9 10 -8 11 6 5 10 -3 15 -9 12 -12z m1125
14 c0 -2 -9 -6 -20 -9 -11 -3 -20 -1 -20 4 0 5 9 9 20 9 11 0 20 -2 20 -4z
m-1090 -50 c-5 -15 -10 -47 -10 -72 l0 -45 -30 16 c-28 14 -29 17 -15 31 8 9
15 19 15 24 0 13 42 82 47 77 2 -2 -1 -16 -7 -31z m1120 15 c0 -20 -39 -83
-55 -88 -12 -3 -35 43 -35 69 0 20 30 36 68 37 15 1 22 -5 22 -18z m-660 -81
c0 -5 -9 -10 -20 -10 -11 0 -20 5 -20 10 0 6 9 10 20 10 11 0 20 -4 20 -10z
m578 -42 c-3 -24 -62 -69 -81 -63 -67 24 -71 26 -57 36 8 5 33 7 55 4 29 -5
36 -3 25 4 -8 6 -28 11 -44 11 -16 0 -26 3 -22 8 4 4 26 7 49 7 34 0 44 4 52
22 8 19 11 20 18 7 5 -8 7 -24 5 -36z m-1269 -121 c9 -3 6 -5 -8 -6 -24 -1
-24 -1 -5 -17 18 -15 18 -15 -3 -4 -29 14 -36 26 -27 53 l7 22 10 -22 c5 -12
17 -24 26 -26z m1262 -48 c-13 -11 -27 -17 -30 -13 -7 7 28 34 43 34 6 -1 0
-10 -13 -21z m-479 -70 c75 -16 88 -33 81 -105 -7 -83 -32 -144 -59 -144 -17
0 -27 12 -43 53 -11 28 -25 72 -30 97 -5 25 -14 60 -19 78 -12 37 -11 38 70
21z m319 -181 c-17 -23 -31 -38 -31 -32 0 14 51 86 57 80 3 -3 -9 -24 -26 -48z"/>
<path d="M1104 1199 c-9 -15 10 -31 40 -34 35 -4 33 11 -3 30 -21 10 -32 12
-37 4z m41 -19 c3 -6 -1 -7 -9 -4 -18 7 -21 14 -7 14 6 0 13 -4 16 -10z"/>
<path d="M1855 800 c11 -5 27 -9 35 -9 9 0 8 4 -5 9 -11 5 -27 9 -35 9 -9 0
-8 -4 5 -9z"/>
<path d="M1245 508 c-4 -18 -12 -42 -17 -52 -10 -19 -11 -18 -23 4 -19 35
-143 67 -160 41 -7 -12 33 -41 57 -41 9 0 20 -5 23 -10 9 -15 -22 -60 -40 -60
-17 0 -20 -26 -5 -35 6 -4 8 -11 5 -16 -4 -5 -3 -9 2 -9 7 1 34 54 62 123 6
15 15 27 21 27 5 0 26 -31 45 -70 19 -38 39 -70 44 -70 5 0 0 18 -12 39 -22
39 -22 39 -2 78 11 21 19 44 18 50 0 7 3 10 8 7 5 -3 9 2 9 10 0 30 -28 16
-35 -16z m-102 -28 c5 -4 4 -11 -1 -14 -6 -3 -13 -2 -17 4 -3 5 -19 10 -36 10
-16 0 -29 5 -29 11 0 12 69 4 83 -11z"/>
</g>
</svg>
